<?xml version="1.0" encoding="utf-8"?>
<!-- Generator: Adobe Illustrator 24.2.3, SVG Export Plug-In . SVG Version: 6.00 Build 0)  -->
<svg version="1.1" id="Layer_1" xmlns="http://www.w3.org/2000/svg" xmlns:xlink="http://www.w3.org/1999/xlink" x="0px" y="0px"
	 viewBox="0 0 140.5 46.8" style="enable-background:new 0 0 140.5 46.8;" xml:space="preserve">
<style type="text/css">
	.st0{fill:#009B97;}
	.st1{fill:#CCCCCC;}
</style>
<g>
	<path class="st0" d="M55.8,16.2c3.9-0.9,7.7-1.8,11.7-2.5c0.6-0.1,0.8-0.6,1-1c2.2-4.1,4.8-7.8,7.7-11.1c0.3-0.3,0.7-1,1.1-0.5
		c0.5,0.5,0,1-0.3,1.4c-2.1,2.9-4,6-5.7,9.3L70.7,13c0.8-0.1,1.4-0.1,2-0.2c2.3-0.4,4.6-0.6,7.1-0.7c0.4,0,0.8-0.1,0.9,0.5
		c0.1,0.6-0.4,0.7-0.8,0.8l-9.6,1.9c-0.5,0-0.9,0.3-1.1,0.7c-3.4,6.4-6.1,13.3-8,20.5c-0.4,1.5-0.5,3.1-0.4,4.7c0,2,1.4,3.6,3.1,3.6
		c0.3,0,0.6,0,0.8-0.1c1.8-0.5,3.4-1.6,4.7-3.1c4.1-4.3,7.6-9.3,10.4-14.8c0.4-0.7,0.7-1.4,1.1-2c0.2-0.4,0.4-0.9,1-0.5l-1.7,4
		c-2.9,5.5-6.4,10.4-10.5,14.7c-1.6,1.9-3.9,3-6.2,3.1c-2.1,0-3.8-1.9-3.9-4.3c-0.3-3.5,0.1-7,1.2-10.3c1.4-4.9,3.2-9.7,5.4-14.2
		l0.3-0.7l0.1-0.1h-0.3c-3.8,0.9-7.7,1.8-11.5,2.6c-0.5,0.1-0.9,0.5-1,1c-3,6.5-5.6,13.3-7.6,20.3l-0.1,0.4c-0.2,0.4-0.2,1-0.8,0.8
		c-0.6-0.3-0.4-0.7-0.3-1.2c1.5-6.5,3.5-12.8,6-18.9c0.2-0.5,0.4-1,0.5-1.5l0.1-0.1h-0.2c-1.8,0.4-3.7,0.5-5.5,0.2
		c-0.2,0-0.4-0.1-0.6-0.1c-0.5-0.2-1.2-0.5-1-1.2c0.2-0.7,0.8-0.3,1.3-0.3c1.9-0.1,3.7-0.4,5.6-0.9c1.2-0.1,2.2-1,2.6-2.3
		c1.4-3.2,3-6.3,4.6-9.4c0.3-0.7,0.8-1.3,1.3-1.8c0.3-0.3,0.7-0.3,1.1-0.1c0.3,0.2,0.3,0.7,0.2,1.1c-0.1,0.7-0.3,1.3-0.6,1.9
		C58.7,10,57.1,12.9,55.8,16.2l-0.2,0.1L55.8,16.2z"/>
	<path class="st1" d="M17,28.7c-3.3,0-6.7,0-10,0c-0.8,0-1.2-0.2-1.4-1.2c-1.1-4.9-2.2-9.8-3.3-14.7c-0.1-0.6-0.2-1,0.5-1.3
		c0.7-0.2,0.8,0.3,0.9,0.9c1,4.5,2,8.9,3,13.4C6.9,26.7,7.1,27,8,27c5.9,0,11.7,0,17.5,0c0.8,0,1.1-0.3,1.3-1.1
		c1.7-7.8,3.5-15.6,5.2-23.4c0.2-0.9,0.5-1.3,1.3-1.2c1.3,0,2.6,0,3.9,0c0.6,0,0.8,0.2,0.8,0.9s-0.3,0.8-0.8,0.8c-1,0-1.9,0-2.9,0
		c-0.5-0.1-1,0.3-1.1,0.8c0,0,0,0.1,0,0.1c-1.6,7.2-3.3,14.5-4.9,21.7c-0.2,0.9-0.3,1.6,0.8,2.1c1.7,1,2.7,3.2,2.3,5.3
		c-0.4,2.3-2.1,4-4.1,4c-6.7,0-13.4,0-20,0c-0.6,0-0.8-0.2-0.8-0.9s0.4-0.7,0.9-0.7h19.3c2.1,0,3.4-1.3,3.4-3.4
		c0-1.7-1.2-3.1-2.8-3.1c0,0,0,0,0,0H17z"/>
	<path class="st0" d="M121.3,26.1c0.4-0.4,0.6-0.9,0.9-1.5c3.2-7.1,7.2-13.6,12-19.3c0.8-1,1.8-1.8,2.9-2.3c0.4-0.2,0.9-0.4,1.2,0
		s-0.1,0.8-0.4,1.2c-4.7,5.8-9,12.1-12.8,18.8c-0.6,1.1-1.1,2.3-1.7,3.4l-0.2,0.5c0,0.1-0.2,0.3,0,0.4l0.2-0.2l0.3-0.3
		c1.4-1.7,2.9-3.2,4.5-4.6c1.2-0.9,2.5-1.5,3.9-1.8c1.1-0.4,2.3,0.3,2.7,1.6c0.1,0.5,0.1,1,0,1.4c0,0.5-0.2,0.9-0.2,1.4
		c0,0.1-0.1,0.2,0,0.3c0.1,0.1,0.1,0,0.2-0.1c0.7-0.3,1.4-0.6,2-0.9c0.4-0.2,0.7-0.2,0.8,0.3c0.1,0.3,0,0.7-0.2,0.8
		c-0.1,0-0.2,0.1-0.2,0.1c-2.5,0.4-3.9,2.4-5.3,4.6c-1.7,2.5-3.9,4.5-6.5,5.7c-1.5,0.7-2.7,0.5-3.3-0.6c-0.6-1.1-0.2-2.2,1.2-3.4
		c2.1-1.8,4.4-3.2,6.8-4.3c1.5-0.9,2.7-2.5,3.1-4.4c0.2-0.7,0-1.1-0.8-1.1c-1.1,0-2.3,0.4-3.2,1.1c-3.3,2.6-6.2,6-8.3,9.9
		c-0.3,0.5-0.4,1.7-1.2,1.3c-0.8-0.4-0.1-1.3,0-1.9c0.2-1.3,0.8-2.4,1-3.7C120.9,27.6,121.5,27.1,121.3,26.1z M129.3,29
		c-2.2,0.8-4.3,2.2-6,4c-0.3,0.3-0.7,0.7-0.4,1.2c0.3,0.5,0.8,0.4,1.2,0.2C126.5,33.4,127.8,31.1,129.3,29L129.3,29z"/>
	<path class="st0" d="M112.4,25.6c-1.4,0.1-2.8,0.9-3.6,2.3c-1.8,3.4-4.5,6.1-7.7,7.6c-0.5,0.3-1,0.4-1.5,0.4
		c-0.8,0.1-1.5-0.3-1.8-1.1c-0.3-0.8-0.2-1.7,0.4-2.3c1.1-1.3,2.4-2.3,3.8-3.1c1.1-0.8,2.3-1.4,3.6-1.9c1.6-0.8,2.9-2.4,3.4-4.4
		c0.3-0.9,0-1.3-0.8-1.3c-1.7,0.1-3.4,1-4.6,2.3c-2.7,2.4-5,5.4-6.7,8.7c-0.2,0.3-0.4,0.7-0.6,1s-0.4,0.6-0.8,0.4
		c-0.4-0.2-0.3-0.6-0.2-0.9c0.3-1.2,0.7-2.3,1-3.5c0-0.3,0.3-0.6,0.2-1c0.5-0.9,1-1.8,1.3-2.8c0.2-0.3,0.4-0.7,0.1-1
		c3.1-6.3,6.7-12.2,10.8-17.7c1.1-1.5,2.4-2.8,3.9-3.8c0.3-0.2,0.6-0.3,0.9-0.4c0.3,0,0.7-0.1,0.8,0.3s0,0.6-0.3,0.9
		c-2.3,3.3-4.9,6.4-7.3,9.9c-2.6,3.7-4.9,7.6-6.9,11.7c-0.1,0.3-0.2,0.6-0.3,0.8c0.4,0.3,0.5-0.1,0.7-0.3c0.9-1.1,1.9-2.2,2.9-3.2
		c1.4-1.4,3-2.3,4.8-2.6c1.9-0.4,3.1,0.8,2.8,3c0,0.5-0.2,1-0.2,1.6c1-0.1,1.8-1.1,2.9-1C113,24.6,112.8,25.1,112.4,25.6z
		 M99.1,27.1c0.1-0.1,0.2-0.2,0.2-0.3c-0.1-0.1-0.3,0-0.4,0.1c-0.1,0.1-0.2,0.2,0,0.4C99.1,27.3,99.1,27.1,99.1,27.1z M105.1,28.8
		c-1.3,0.5-2.5,1.3-3.7,2.1c-0.8,0.5-1.6,1.2-2.2,1.9c-0.3,0.4-0.7,0.8-0.5,1.3s0.8,0.4,1.3,0.2c0.6-0.3,1.2-0.6,1.7-1.1
		c1.3-1.3,2.5-2.7,3.6-4.3v-0.3L105.1,28.8z"/>
	<path class="st1" d="M24.7,14.7c0,0.4,0,0.9,0,1.4c0,1.1-0.6,2.1-1.5,2.5c-0.9,0.5-2,0.3-2.7-0.5c-0.5-0.6-0.8-0.5-1.4,0
		c-2,1.5-4.7,0.9-6-1.4c-1.3-2.3-0.8-5.4,1.2-6.9C15,9.3,15.9,9,16.9,9.1c1.8,0.1,3.4,1.5,3.9,3.5c0.2,1,0.3,2,0.2,3.1
		c0,0.9,0.1,1.6,1.1,1.6s1-0.8,1.1-1.7c0.2-2.1-0.2-4.3-1.3-6c-1.7-2.7-4.8-3.8-7.6-2.6c-2.8,1.2-4.5,4.4-4.1,7.8
		c0.4,4.1,3.6,7.1,7.2,6.6c0.8-0.1,1.5-0.4,2.2-0.8c0.5-0.2,0.9-0.6,1.3,0.2c0.3,0.7-0.2,1.1-0.7,1.3c-2.7,1.6-6,1.2-8.4-1
		c-2.6-2.2-3.7-6.1-2.8-9.6c0.7-3.4,3.2-6,6.3-6.5c4.4-0.9,8.5,2.5,9.2,7.5C24.7,13.2,24.7,14,24.7,14.7z M16.7,17.2
		c1.6,0,2.9-1.5,2.9-3.3c0-1.8-1.3-3.3-2.9-3.3c0,0,0,0,0,0c-1.6,0-2.9,1.5-2.9,3.3C13.8,15.8,15.1,17.2,16.7,17.2
		C16.7,17.2,16.7,17.2,16.7,17.2z"/>
	<path class="st0" d="M97.6,24.9c0.4,0.4,0,0.7-0.1,1c-0.3,1-0.8,1.9-1.3,2.8c-1.1,1.4-2.3,2.6-3.7,3.5c-0.3,0.2-0.6,0.4-0.8,0.5
		c-2.4,1.2-3.9,0-3.6-3c0.1-1.1,0.3-2.3,0.6-3.4c0.2-0.5,0.1-1-0.1-1.4c-1.1,1.4-2.1,2.8-3.2,4c-0.7,0.8-1.4,1.4-2.2,1.9
		c-1.5,1-2.8,0.2-2.9-1.9c0-0.3,0.2-0.7-0.2-0.9l1.7-4c0.6-0.3,0.9-1,1.4-1.5c0.8-0.8,1.7-1.3,2.7-1.5c1.4-0.3,2.4,0.4,3.2,2.2
		c0.7-0.9,1.4-1.8,2.2-2.6c0.3-0.3,0.5-0.9,1-0.5c0.5,0.3,0.3,0.8,0.2,1.3c-0.1,1-0.4,2-0.8,2.9c-0.8,1.7-1.4,3.5-1.9,5.3
		c-0.1,0.6-0.4,1.4,0,1.8s1.1,0.1,1.7-0.1c1.9-1.1,3.6-2.7,4.9-4.7C96.8,26.1,97.2,25.5,97.6,24.9z M88.1,24.3l-0.2-0.4
		c-0.4-0.9-1.2-1-2.2-0.3c-1.6,1.3-2.9,3-3.7,5c-0.2,0.4-0.5,0.9-0.1,1.3s0.7,0,1.1-0.3c1.8-1.3,3.4-2.9,4.9-4.8
		C87.9,24.7,88,24.5,88.1,24.3z"/>
	<path class="st0" d="M112.4,25.6c0.4-0.4,0.6-1,0.6-1.6c0.4-0.5,0.7-1,1-1.7c0.4-0.7,0.9-1.1,1.6-0.7c0.7,0.4,0.6,1.5,0.2,2.2
		c-0.8,1.3-1.5,2.8-2,4.3c-0.2,0.6-0.6,1.4-0.1,2c0.5,0.6,1.2,0.3,1.9,0c2.1-0.9,4.1-2.3,5.8-4c0.2,1-0.5,1.5-0.8,2.3
		c-1.5,1.1-3,2.1-4.6,3c-0.2,0.1-0.4,0.2-0.7,0.3c-2.1,0.7-3.3-0.3-3.3-2.8C112,27.7,112.4,26.7,112.4,25.6z"/>
	<path class="st1" d="M8.3,45.6c-1.5-0.1-2.6-1.5-2.6-3.2c0-1.7,1.1-3,2.6-3c1.5,0,2.7,1.4,2.7,3.1c0,0,0,0,0,0
		C11,44.2,9.8,45.5,8.3,45.6z M8.3,41.1c-0.7,0-1.3,0.6-1.3,1.4c0,0.8,0.6,1.4,1.3,1.4l0,0c0.6,0.1,1.2-0.5,1.2-1.2
		c0-0.1,0-0.1,0-0.2c0.1-0.7-0.4-1.4-1.1-1.5C8.5,41.1,8.4,41.1,8.3,41.1z"/>
	<path class="st1" d="M28.7,45.6c-1.5-0.1-2.7-1.5-2.7-3.2c0-1.7,1.2-3.1,2.7-3.1c0,0,0,0,0,0c1.4,0,2.6,1.3,2.6,3c0,0,0,0,0,0.1
		C31.4,44.1,30.2,45.6,28.7,45.6C28.7,45.6,28.7,45.6,28.7,45.6z M28.8,41.1c-0.7-0.1-1.3,0.5-1.4,1.3c0,0,0,0.1,0,0.1
		c0,0.8,0.5,1.4,1.1,1.5c0,0,0.1,0,0.1,0c0.7,0,1.2-0.6,1.3-1.3c0-0.1,0-0.1,0-0.2c0.1-0.7-0.4-1.3-1-1.4
		C28.9,41.1,28.8,41.1,28.8,41.1z"/>
	<path class="st0" d="M120,15.5c-0.1,0.3-0.2,0.6-0.4,0.8l-2.1,2.3c-0.2,0.3-0.6,0.3-0.8,0.1c-0.2-0.2-0.2-0.4-0.2-0.7
		c0.2-1.4,0.7-2.7,1.6-3.7c0.4-0.4,0.9-0.5,1.4-0.2C119.9,14.4,120,14.8,120,15.5z"/>
	<path class="st0" d="M55.8,16.2h-0.3l0.2-0.1L55.8,16.2z"/>
	<path class="st0" d="M66.2,16.3h0.3l-0.1,0.1C66.3,16.4,66.2,16.3,66.2,16.3z"/>
	<path class="st0" d="M51.2,19.6h0.2l-0.1,0.1L51.2,19.6z"/>
	<path class="st0" d="M123.6,26.7l-0.3,0.3l-0.2-0.2l0.2-0.5L123.6,26.7z"/>
	<path class="st0" d="M134.6,24.9c0,0-0.1,0.1-0.2,0.1c0,0,0-0.2,0-0.3L134.6,24.9z"/>
	<path class="st0" d="M123.3,27.1l-0.2,0.2c-0.2-0.1,0-0.3,0-0.4L123.3,27.1z"/>
	<path class="st0" d="M98.9,26.9c0.1-0.1,0.2-0.4,0.4-0.1c0.2,0.2,0,0.2-0.2,0.3L98.9,26.9z"/>
	<path class="st0" d="M99.1,27.1c0,0.1,0,0.3-0.2,0.2c-0.2-0.1,0-0.2,0-0.4L99.1,27.1z"/>
	<path class="st0" d="M105.1,28.9l0.2-0.1V29L105.1,28.9z"/>
	<path class="st1" d="M8.3,41.1c0.6,0,1.2,0.5,1.2,1.3c0,0.1,0,0.1,0,0.2c0.1,0.7-0.4,1.4-1,1.4c-0.1,0-0.1,0-0.2,0
		c-0.7,0-1.3-0.6-1.3-1.4C7.1,41.8,7.7,41.1,8.3,41.1z"/>
	<path class="st1" d="M28.8,41.1c0.6,0,1.1,0.5,1.1,1.2c0,0,0,0.1,0,0.1c0,0.8-0.5,1.4-1.1,1.5c0,0-0.1,0-0.1,0
		c-0.7,0-1.2-0.6-1.2-1.3c0,0,0-0.1,0-0.1C27.4,41.7,28,41.1,28.8,41.1C28.8,41.1,28.8,41.1,28.8,41.1z"/>
</g>
</svg>
