<?xml version="1.0" encoding="utf-8"?>
<!-- Generator: Adobe Illustrator 24.2.3, SVG Export Plug-In . SVG Version: 6.00 Build 0)  -->
<svg version="1.1" id="Layer_1" xmlns="http://www.w3.org/2000/svg" xmlns:xlink="http://www.w3.org/1999/xlink" x="0px" y="0px"
	 viewBox="0 0 140.5 46.8" style="enable-background:new 0 0 140.5 46.8;" xml:space="preserve">
<style type="text/css">
	.st0{fill:#098989;}
	.st1{fill:#066663;}
</style>
<g>
	<path d="M55.6,17.1c3.9-0.8,7.8-1.6,11.8-2.2c0.6-0.1,0.8-0.5,1.1-0.9c2.3-3.5,4.7-7,7.9-9.8c0.3-0.3,0.7-0.8,1.1-0.4
		c0.5,0.4,0,0.9-0.3,1.3c-2.1,2.6-4,5.3-5.7,8.2c-0.2,0.3-0.3,0.6-0.6,1.1c0.8-0.1,1.4-0.1,2-0.2c2.4-0.3,4.7-0.5,7.1-0.6
		c0.4,0,0.8-0.1,0.9,0.4c0.1,0.6-0.4,0.6-0.8,0.7c-3.2,0.6-6.5,1.1-9.7,1.7c-0.4,0.1-0.9,0.1-1.1,0.6c-3.2,5.8-6.4,11.6-8.1,18
		c-0.4,1.4-0.6,2.7-0.5,4.2c0.2,2.2,1.8,3.4,3.9,2.9c1.9-0.4,3.4-1.5,4.8-2.7c4.3-3.7,7.5-8.3,10.5-13.1c0.4-0.6,0.7-1.2,1.1-1.8
		c0.2-0.3,0.5-0.8,1-0.4c-0.6,1.2-1.1,2.4-1.7,3.5c-3,4.8-6.4,9.2-10.6,12.9C68,42,66,43.3,63.5,43.2c-2.2-0.1-3.7-1.4-4-3.7
		c-0.5-3.1,0.3-6.1,1.2-9.1C61.8,26.1,63.8,22,66,18c0.1-0.2,0.2-0.4,0.3-0.7l0.1-0.1c-0.1,0-0.2,0-0.3,0c-3.9,0.8-7.7,1.6-11.6,2.3
		c-0.6,0.1-0.8,0.4-1,0.9c-3,5.8-5.7,11.7-7.7,17.9c0,0.1-0.1,0.3-0.1,0.4c-0.2,0.4-0.2,0.9-0.8,0.7c-0.5-0.2-0.4-0.6-0.3-1.1
		c1.3-5.8,3.6-11.2,6.1-16.6c0.2-0.4,0.4-0.9,0.5-1.4l0.1-0.1c-0.1,0-0.2,0-0.2-0.1c-1.8,0.2-3.7,0.5-5.5,0.2c-0.2,0-0.4,0-0.6-0.1
		c-0.5-0.2-1.2-0.4-1-1c0.1-0.4,0.8-0.3,1.3-0.2c1.9,0.1,3.7-0.6,5.6-0.8c1.3-0.1,2.1-0.8,2.6-2c1.3-2.9,3-5.5,4.6-8.2
		c0.4-0.6,0.7-1.2,1.4-1.6c0.4-0.2,0.7-0.3,1.1-0.1c0.3,0.2,0.3,0.6,0.3,1c-0.1,0.6-0.3,1.1-0.7,1.6c-1.6,2.6-3.2,5.2-4.6,8L55.5,17
		C55.4,17,55.5,17,55.6,17.1z"/>
	<path class="st0" d="M16.5,28.1c-3.4,0-6.7,0-10.1,0c-0.8,0-1.2-0.2-1.5-1.1c-1.1-4.3-2.2-8.6-3.3-12.9c-0.1-0.5-0.2-0.9,0.5-1.1
		c0.7-0.2,0.8,0.2,0.9,0.8c1,3.9,2,7.9,3,11.8c0.2,0.8,0.5,1.1,1.3,1.1c5.9,0,11.8,0,17.7,0c0.8,0,1.1-0.3,1.2-1
		c1.7-6.9,3.5-13.8,5.3-20.7c0.2-0.8,0.5-1.1,1.3-1.1c1.3,0.1,2.6,0,3.9,0c0.6,0,0.8,0.2,0.8,0.8s-0.3,0.7-0.8,0.7c-1,0-2,0-2.9,0
		c-0.6,0-0.9,0.2-1.1,0.8c-1.6,6.4-3.3,12.7-5,19.1c-0.2,0.8-0.3,1.4,0.8,1.8c1.8,0.7,2.7,2.8,2.3,4.7c-0.4,2-2.1,3.5-4.2,3.5
		c-6.7,0-13.5,0-20.2,0c-0.6,0-0.8-0.2-0.8-0.8c0-0.7,0.4-0.7,0.9-0.7c6.5,0,13,0,19.5,0c2.1,0,3.4-1.2,3.4-3c0-1.7-1.2-2.9-2.8-2.9
		C23.3,28,19.9,28.1,16.5,28.1L16.5,28.1z"/>
	<path d="M121.8,25.8c0.4-0.4,0.6-0.8,0.9-1.3c3.2-6.2,7.2-11.9,12.1-17c0.8-0.9,1.8-1.5,2.9-2.1c0.4-0.2,0.9-0.3,1.2,0
		c0.4,0.5-0.1,0.7-0.4,1c-4.6,5.3-9.3,10.5-12.9,16.5c-0.6,1-1.1,2-1.7,3c-0.1,0.1-0.2,0.3-0.2,0.4c-0.1,0.1-0.2,0.2,0,0.3
		c0,0,0.1-0.1,0.2-0.2s0.2-0.2,0.3-0.3c1.5-1.4,2.8-2.9,4.5-4c1.2-0.8,2.5-1.3,3.9-1.6c1.8-0.3,2.9,0.8,2.7,2.6
		c-0.1,0.4-0.2,0.8-0.2,1.2c0,0.1-0.1,0.2,0,0.3c0,0,0.1-0.1,0.2-0.1c0.7-0.2,1.4-0.5,2.1-0.8c0.4-0.2,0.7-0.2,0.8,0.3
		c0.2,0.4-0.1,0.7-0.5,0.8c-2.5,0.4-3.9,2.1-5.4,4.1c-1.7,2.2-3.9,3.9-6.5,5c-1.5,0.6-2.7,0.4-3.3-0.5c-0.6-0.9-0.2-1.9,1.2-3
		c2.1-1.6,4.4-2.8,6.9-3.8c1.8-0.7,2.5-2.3,3.1-3.9c0.2-0.6-0.1-1-0.8-1c-1.2,0-2.3,0.4-3.3,1c-3.5,2.2-6.1,5.4-8.4,8.7
		c-0.3,0.5-0.4,1.5-1.2,1.1c-0.8-0.4-0.1-1.1,0-1.7c0.2-1.1,0.8-2.1,1-3.3C121.3,27.2,122,26.6,121.8,25.8z M129.8,28.4
		c-2.2,0.8-4.3,1.9-6.1,3.5c-0.3,0.3-0.7,0.6-0.4,1.1s0.8,0.4,1.2,0.2C126.9,32.2,128.3,30.2,129.8,28.4z"/>
	<path d="M112.8,25.3c-1.4,0.3-2.7,0.5-3.7,2c-1.9,3-4.5,5.3-7.7,6.7c-0.5,0.2-1.1,0.4-1.6,0.4c-0.8,0-1.5-0.2-1.8-1
		c-0.4-0.8-0.1-1.4,0.4-2c1.1-1.2,2.4-2,3.8-2.7c1.2-0.6,2.4-1.3,3.6-1.7c1.9-0.7,2.7-2.2,3.4-3.9c0.3-0.7,0.1-1.2-0.8-1.2
		c-1.8,0-3.3,1-4.6,2c-2.8,2.1-4.9,4.8-6.8,7.7c-0.2,0.3-0.4,0.6-0.5,0.9c-0.2,0.3-0.4,0.5-0.8,0.3s-0.3-0.5-0.2-0.8
		c0.3-1,0.7-2.1,1-3.1c0.1-0.3,0.3-0.5,0.2-0.9c0.6-0.7,0.9-1.6,1.3-2.4c0.2-0.3,0.4-0.6,0.1-0.9c3.3-5.5,6.7-10.9,11-15.7
		c1.2-1.3,2.3-2.5,3.9-3.3c0.3-0.1,0.6-0.3,0.9-0.4s0.7-0.1,0.8,0.3c0.2,0.3-0.1,0.5-0.3,0.8c-2.5,2.9-5.1,5.7-7.4,8.7
		c-2.6,3.3-4.9,6.7-7,10.3c-0.1,0.2-0.2,0.5-0.4,0.7c0.4,0.3,0.5-0.1,0.7-0.2c0.9-1,1.9-1.9,3-2.8c1.4-1.2,3-2,4.9-2.3
		s3.1,0.7,2.8,2.6c-0.1,0.4-0.2,0.9-0.2,1.4c1-0.1,1.9-0.9,2.9-0.9C113.4,24.5,113.1,24.9,112.8,25.3z M99.3,26.6
		c0.1-0.1,0.2-0.2,0.2-0.3c-0.2-0.2-0.3,0-0.3,0.1s-0.2,0.2,0,0.3C99.3,26.9,99.3,26.7,99.3,26.6z M105.4,28.2
		c-1.3,0.5-2.5,1.1-3.7,1.9c-0.8,0.5-1.6,1-2.3,1.7c-0.3,0.3-0.7,0.7-0.5,1.2c0.3,0.5,0.8,0.4,1.3,0.2c0.6-0.2,1.2-0.6,1.7-1
		c1.3-1.1,2.5-2.4,3.6-3.8C105.5,28.3,105.5,28.2,105.4,28.2L105.4,28.2z"/>
	<path class="st0" d="M24.3,15.8c0,0.3,0,0.8,0,1.3c-0.1,1-0.5,1.8-1.5,2.2c-1,0.4-2,0.4-2.7-0.5c-0.5-0.6-0.8-0.4-1.4,0
		c-1.5,1.1-3.6,0.9-5.1-0.2c-1.5-1.2-2.1-3.2-1.4-4.9c0.7-1.8,2.3-2.9,4.3-2.9c1.8,0,3.4,1.3,4,3.1c0.3,0.9,0.3,1.8,0.2,2.7
		c0,0.8,0.1,1.5,1.1,1.4c1,0,1-0.7,1.1-1.5c0.1-1.9-0.1-3.7-1.3-5.3C19.8,8.9,16.7,8,13.8,9c-2.8,1-4.4,3.7-4.1,6.8
		c0.2,2.7,2.4,5.1,5.1,5.7c1.5,0.3,3,0.1,4.4-0.5c0.5-0.2,0.9-0.5,1.2,0.1c0.3,0.7-0.2,1-0.7,1.2c-3,1.3-5.9,1.2-8.5-0.9
		c-2.7-2.2-3.7-5.1-2.8-8.4c0.9-3.2,3.1-5.1,6.3-5.8C19.4,6.3,24.6,10.1,24.3,15.8z M16.2,18c1.6,0,3-1.3,3-2.8c0-1.7-1.3-3-3-3
		c-1.6,0-2.9,1.2-2.9,2.8C13.3,16.7,14.5,18,16.2,18z"/>
	<path d="M97.9,24.7c0.4,0.3,0.1,0.6-0.1,0.9c-0.4,0.8-0.7,1.7-1.3,2.4c-1.2,1.1-2.3,2.4-3.7,3.2c-0.3,0.1-0.5,0.3-0.8,0.4
		c-2.4,1-3.9-0.1-3.6-2.7c0.1-1,0.4-2,0.6-3c0.1-0.3,0.3-0.6-0.1-1.2c-1.1,1.2-2.2,2.4-3.2,3.5c-0.7,0.7-1.4,1.2-2.3,1.7
		c-1.6,0.9-2.9,0.2-2.9-1.7c0-0.3,0.2-0.6-0.2-0.8c0.6-1.2,1.1-2.4,1.7-3.5c0.6-0.3,0.9-0.9,1.4-1.4c0.8-0.7,1.7-1.1,2.7-1.3
		c1.4-0.3,2.5,0.4,3.2,2c0.7-0.8,1.5-1.5,2.2-2.3c0.3-0.3,0.5-0.7,1-0.5s0.3,0.7,0.2,1.1c0,0.9-0.4,1.8-0.8,2.6
		c-0.7,1.5-1.5,3.1-1.9,4.7c-0.1,0.5-0.4,1.2,0,1.6c0.5,0.4,1.2,0.1,1.7-0.1c2-0.9,3.5-2.5,4.9-4.2C97,25.8,97.4,25.3,97.9,24.7z
		 M88.2,24.2C88.1,24,88,23.9,88,23.8c-0.4-0.7-1.2-0.9-2.2-0.3c-1.7,1-2.8,2.7-3.7,4.4c-0.2,0.3-0.5,0.8-0.1,1.1
		c0.3,0.3,0.7,0,1.1-0.2c1.9-1.1,3.4-2.7,4.9-4.2C88,24.5,88.1,24.4,88.2,24.2z"/>
	<path d="M112.8,25.3c0.4-0.4,0.6-0.8,0.6-1.4c0.5-0.4,0.7-1,1-1.5c0.4-0.7,0.9-1,1.7-0.6c0.5,0.2,0.6,1.3,0.2,2
		c-0.8,1.2-1.5,2.4-2,3.8c-0.2,0.6-0.6,1.3-0.1,1.8s1.2,0.2,1.9,0c2.2-0.7,4.1-2.1,5.9-3.6c0.2,0.8-0.5,1.4-0.8,2
		c-1.6,0.8-3,2-4.7,2.6c-0.2,0.1-0.5,0.2-0.7,0.3c-2.1,0.7-3.3-0.3-3.3-2.5C112.3,27.2,112.8,26.3,112.8,25.3z"/>
	<path class="st1" d="M7.7,43c-1.5,0-2.7-1.3-2.6-2.8c0-1.5,1.2-2.6,2.7-2.6s2.7,1.3,2.7,2.7C10.5,41.7,9.2,43,7.7,43z M7.8,39
		c-0.8,0-1.2,0.5-1.2,1.3s0.5,1.2,1.2,1.3c0.8,0,1.3-0.5,1.3-1.2C9.1,39.5,8.6,39,7.8,39z"/>
	<path class="st1" d="M28.3,43c-1.4,0-2.8-1.4-2.7-2.8c0-1.5,1.3-2.7,2.8-2.7s2.6,1.2,2.6,2.7C31,41.7,29.8,43,28.3,43z M28.4,39
		c-0.8,0-1.4,0.6-1.4,1.2c0,0.8,0.5,1.2,1.2,1.3c0.7,0,1.3-0.6,1.3-1.3C29.6,39.4,29.1,39,28.4,39z"/>
	<path d="M120.4,16.5c0,0.1-0.2,0.4-0.4,0.7c-0.7,0.7-1.4,1.4-2.1,2c-0.2,0.2-0.5,0.3-0.7,0.1c-0.2-0.1-0.3-0.4-0.3-0.6
		c0.2-1.3,0.7-2.4,1.7-3.3c0.4-0.4,0.9-0.4,1.4-0.2C120.3,15.5,120.4,15.8,120.4,16.5z"/>
	<path d="M55.6,17.1c-0.1,0-0.2,0-0.3,0l0.1-0.1C55.6,17,55.6,17,55.6,17.1z"/>
	<path d="M66.2,17.2c0.1,0,0.2,0,0.3,0l-0.1,0.1C66.2,17.3,66.2,17.2,66.2,17.2z"/>
	<path d="M51,20.1c0.1,0,0.2,0,0.2,0.1l-0.1,0.1C51.1,20.2,51,20.2,51,20.1z"/>
	<path d="M124.1,26.4c-0.1,0.1-0.2,0.2-0.3,0.3c-0.1-0.1-0.1-0.1-0.2-0.2c0.1-0.1,0.2-0.3,0.2-0.4C123.9,26.2,124,26.3,124.1,26.4z"
		/>
	<path d="M135.1,24.7c0,0-0.1,0.1-0.2,0.1c-0.1-0.1-0.1-0.2,0-0.3C135,24.6,135.1,24.7,135.1,24.7z"/>
	<path d="M123.8,26.6c-0.1,0.1-0.2,0.2-0.2,0.2c-0.2-0.1-0.1-0.2,0-0.3C123.7,26.5,123.7,26.6,123.8,26.6z"/>
	<path d="M99.1,26.5c0.1-0.1,0.2-0.3,0.3-0.1c0.1,0.1,0,0.2-0.2,0.3C99.3,26.6,99.2,26.5,99.1,26.5z"/>
	<path d="M99.3,26.6c-0.1,0.1-0.1,0.3-0.2,0.2c-0.2-0.1,0-0.2,0-0.3C99.2,26.5,99.3,26.6,99.3,26.6z"/>
	<path d="M105.4,28.2c0.1,0,0.1-0.1,0.2-0.1c0,0.1,0,0.2,0,0.2C105.5,28.3,105.4,28.3,105.4,28.2z"/>
</g>
</svg>
